<svg width="24" height="24" viewBox="0 0 24 24" fill="none" xmlns="http://www.w3.org/2000/svg">
<path fill-rule="evenodd" clip-rule="evenodd" d="M14.9518 9.04781V3.88172C14.9518 2.61464 14.0512 1.66781 13.0658 1.66781H5.03001C4.04456 1.66781 3.14404 2.61464 3.14404 3.88172V20.1178C3.14404 21.3849 4.04456 22.3317 5.03001 22.3317H13.0658C14.0512 22.3317 14.9518 21.3849 14.9518 20.1178V14.9517C14.9518 14.5443 14.6211 14.2136 14.2139 14.2136C13.8064 14.2136 13.4759 14.5443 13.4759 14.9517V20.1178C13.4759 20.3472 13.4119 20.5576 13.295 20.7082C13.2335 20.7871 13.1595 20.8557 13.0658 20.8557H5.03001C4.93626 20.8557 4.86229 20.7871 4.80076 20.7082C4.68394 20.5576 4.61986 20.3473 4.61986 20.1178V3.88172C4.61986 3.65229 4.68394 3.4419 4.80076 3.29137C4.86229 3.21246 4.93626 3.14379 5.03001 3.14379H13.0658C13.1595 3.14379 13.2335 3.21246 13.295 3.29137C13.4119 3.44189 13.4759 3.65227 13.4759 3.88172V9.04781C13.4759 9.45522 13.8065 9.78572 14.2139 9.78572C14.6211 9.78572 14.9518 9.45521 14.9518 9.04781Z" fill="#F7F4F3"/>
<path fill-rule="evenodd" clip-rule="evenodd" d="M10.3078 14.43L7.87746 11.9998L10.3078 9.56944C10.5957 9.2816 10.5957 8.81376 10.3078 8.5259C10.02 8.23806 9.55216 8.23806 9.2643 8.5259L6.31225 11.478C6.02368 11.7658 6.02368 12.2336 6.31225 12.5215L9.2643 15.4735C9.55214 15.7614 10.02 15.7614 10.3078 15.4735C10.5957 15.1857 10.5957 14.7179 10.3078 14.43Z" fill="#F7F4F3"/>
<path fill-rule="evenodd" clip-rule="evenodd" d="M20.1179 11.2617H6.83398C6.42657 11.2617 6.09607 11.5924 6.09607 11.9998C6.09607 12.407 6.42658 12.7377 6.83398 12.7377H20.1179C20.5253 12.7377 20.8558 12.407 20.8558 11.9998C20.8558 11.5924 20.5253 11.2617 20.1179 11.2617Z" fill="#F7F4F3"/>
<path fill-rule="evenodd" clip-rule="evenodd" d="M14.9518 9.04781V3.88172C14.9518 2.61464 14.0512 1.66781 13.0658 1.66781H5.03001C4.04456 1.66781 3.14404 2.61464 3.14404 3.88172V20.1178C3.14404 21.3849 4.04456 22.3317 5.03001 22.3317H13.0658C14.0512 22.3317 14.9518 21.3849 14.9518 20.1178V14.9517C14.9518 14.5443 14.6211 14.2136 14.2139 14.2136C13.8064 14.2136 13.4759 14.5443 13.4759 14.9517V20.1178C13.4759 20.3472 13.4119 20.5576 13.295 20.7082C13.2335 20.7871 13.1595 20.8557 13.0658 20.8557H5.03001C4.93626 20.8557 4.86229 20.7871 4.80076 20.7082C4.68394 20.5576 4.61986 20.3473 4.61986 20.1178V3.88172C4.61986 3.65229 4.68394 3.4419 4.80076 3.29137C4.86229 3.21246 4.93626 3.14379 5.03001 3.14379H13.0658C13.1595 3.14379 13.2335 3.21246 13.295 3.29137C13.4119 3.44189 13.4759 3.65227 13.4759 3.88172V9.04781C13.4759 9.45522 13.8065 9.78572 14.2139 9.78572C14.6211 9.78572 14.9518 9.45521 14.9518 9.04781Z" fill="#F7F4F3" stroke="#F7F4F3" stroke-width="0.390625"/>
<path fill-rule="evenodd" clip-rule="evenodd" d="M10.3078 14.43L7.87746 11.9998L10.3078 9.56944C10.5957 9.2816 10.5957 8.81376 10.3078 8.5259C10.02 8.23806 9.55216 8.23806 9.2643 8.5259L6.31225 11.478C6.02368 11.7658 6.02368 12.2336 6.31225 12.5215L9.2643 15.4735C9.55214 15.7614 10.02 15.7614 10.3078 15.4735C10.5957 15.1857 10.5957 14.7179 10.3078 14.43Z" fill="#F7F4F3" stroke="#F7F4F3" stroke-width="0.390625"/>
<path fill-rule="evenodd" clip-rule="evenodd" d="M20.1179 11.2617H6.83398C6.42657 11.2617 6.09607 11.5924 6.09607 11.9998C6.09607 12.407 6.42658 12.7377 6.83398 12.7377H20.1179C20.5253 12.7377 20.8558 12.407 20.8558 11.9998C20.8558 11.5924 20.5253 11.2617 20.1179 11.2617Z" fill="#F7F4F3" stroke="#F7F4F3" stroke-width="0.390625"/>
</svg>
