<svg width="124" height="31" viewBox="0 0 124 31" fill="none" xmlns="http://www.w3.org/2000/svg">
<g clip-path="url(#clip0_159_2)">
<path d="M2.44068 16.6216L11.1864 23.5135L7.72881 26.3514C7.49235 24.154 5.69492 22.9054 4.67797 22.9054C1.22034 22.9054 0.40678 25.7432 1.22034 27.7703C2.0339 29.7973 4.52502 30.7247 7.72881 27.973L12.2034 24.527L16.678 27.973C19.9004 30.9026 22.7797 29.1892 23.1864 27.5676C23.5932 25.9459 23.1864 23.5135 20.339 23.3108C18.9153 23.2095 17.018 24.0592 16.678 26.3514L13.4237 23.5135L22.1695 16.6216L23.7966 13.5811L12.2034 22.7027L0.40678 13.3784L2.44068 16.6216Z" fill="#F7F4F3" stroke="#06070E" stroke-width="0.5"/>
<path d="M4.67797 0V15.8108L12.2034 21.8919L19.9322 15.8108V0H4.67797Z" fill="#F7F4F3"/>
<path d="M6.1017 7.7027V9.93243H7.32203V7.7027H6.1017Z" fill="#06070E"/>
<path d="M17.0847 10.9459V13.3784H18.3051V10.9459H17.0847Z" fill="#06070E"/>
<path d="M17.0847 7.7027V9.93243H18.3051V7.7027H17.0847Z" fill="#06070E"/>
<path d="M17.0847 0.81081V3.04054H18.3051V0.81081H17.0847Z" fill="#06070E"/>
<path d="M6.1017 10.9459V13.3784H7.32203V10.9459H6.1017Z" fill="#06070E"/>
<path d="M6.1017 14.1892V16.6216H7.32203V14.1892H6.1017Z" fill="#06070E"/>
<path d="M6.1017 4.25676V6.48649H7.32203V4.25676H6.1017Z" fill="#06070E"/>
<path d="M20.1356 28.3784C21.3712 28.3784 22.3729 27.4708 22.3729 26.3514C22.3729 25.2319 21.3712 24.3243 20.1356 24.3243C18.9 24.3243 17.8983 25.2319 17.8983 26.3514C17.8983 27.4708 18.9 28.3784 20.1356 28.3784Z" fill="#06070E"/>
<path d="M4.27119 28.3784C5.50681 28.3784 6.50847 27.4708 6.50847 26.3514C6.50847 25.2319 5.50681 24.3243 4.27119 24.3243C3.03557 24.3243 2.0339 25.2319 2.0339 26.3514C2.0339 27.4708 3.03557 28.3784 4.27119 28.3784Z" fill="#06070E"/>
<path d="M6.1017 0.81081V3.04054H7.32203V0.81081H6.1017Z" fill="#06070E"/>
<path d="M17.0847 14.1892V16.6216H18.3051V14.1892H17.0847Z" fill="#06070E"/>
<path d="M17.0847 4.05405V6.48649H18.3051V4.05405H17.0847Z" fill="#06070E"/>
</g>
<path d="M30.9141 28V7.375H39.1641V11.3945H35.0625V14.6758H38.9531V18.6484H35.0625V28H30.9141Z" fill="#F7F4F3"/>
<path d="M40.4062 9.34375V5.85156H44.6016V9.34375H40.4062ZM40.4062 28V10.4219H44.6016V28H40.4062Z" fill="#F7F4F3"/>
<path d="M46.2656 28V7.375H50.5312V28H46.2656Z" fill="#F7F4F3"/>
<path d="M52.2188 28V10.4219H56.3203V12.4609C56.5078 11.7422 56.8281 11.1914 57.2812 10.8086C57.7344 10.4258 58.3984 10.2344 59.2734 10.2344C59.9766 10.2344 60.5742 10.3984 61.0664 10.7266C61.5664 11.0469 61.918 11.4727 62.1211 12.0039C62.4414 11.4258 62.8164 10.9883 63.2461 10.6914C63.6836 10.3867 64.3047 10.2344 65.1094 10.2344C66.0859 10.2344 66.8359 10.4453 67.3594 10.8672C67.8906 11.2812 68.2578 11.8594 68.4609 12.6016C68.6719 13.3359 68.7773 14.1875 68.7773 15.1562V28H64.5938V15.0859C64.5938 13.9531 64.3047 13.3867 63.7266 13.3867C63.4219 13.3867 63.1875 13.4922 63.0234 13.7031C62.8594 13.9062 62.7461 14.1602 62.6836 14.4648C62.6211 14.7695 62.5898 15.0742 62.5898 15.3789V28H58.4062V15.0859C58.4062 14.7188 58.3594 14.3516 58.2656 13.9844C58.1797 13.6172 57.9531 13.4336 57.5859 13.4336C57.2734 13.4336 57.0312 13.5469 56.8594 13.7734C56.6875 14 56.5703 14.2812 56.5078 14.6172C56.4453 14.9453 56.4141 15.2695 56.4141 15.5898V28H52.2188Z" fill="#F7F4F3"/>
<path d="M79.6172 30.1914L76.3359 28.0352C75.9609 28.1367 75.5742 28.1875 75.1758 28.1875C73.5664 28.1875 72.3359 27.7109 71.4844 26.7578C70.6406 25.8047 70.2188 24.4141 70.2188 22.5859V12.6133C70.2188 10.8398 70.6523 9.49219 71.5195 8.57031C72.3945 7.64844 73.6562 7.1875 75.3047 7.1875C76.9531 7.1875 78.2109 7.64844 79.0781 8.57031C79.9531 9.49219 80.3906 10.8398 80.3906 12.6133V22.5859C80.3906 24.2891 80.0078 25.6289 79.2422 26.6055L81.0117 27.7305L79.6172 30.1914ZM75.3047 24.3906C75.6016 24.3906 75.8125 24.2812 75.9375 24.0625C76.0703 23.8438 76.1523 23.5742 76.1836 23.2539C76.2227 22.9336 76.2422 22.625 76.2422 22.3281V12.6836C76.2422 12.2461 76.1797 11.8555 76.0547 11.5117C75.9375 11.1602 75.6797 10.9844 75.2812 10.9844C74.875 10.9844 74.6094 11.1562 74.4844 11.5C74.3594 11.8359 74.2969 12.2266 74.2969 12.6719V22.4102C74.2969 22.6836 74.3125 22.9766 74.3438 23.2891C74.3828 23.5938 74.4727 23.8555 74.6133 24.0742C74.7539 24.2852 74.9844 24.3906 75.3047 24.3906Z" fill="#F7F4F3"/>
<path d="M85.6758 28.1875C84.7383 28.1875 84.0195 27.9922 83.5195 27.6016C83.0273 27.2109 82.6914 26.668 82.5117 25.9727C82.332 25.2695 82.2422 24.4492 82.2422 23.5117V10.4219H86.4609V23.0195C86.4609 23.7227 86.5156 24.2148 86.625 24.4961C86.7344 24.7695 86.9922 24.9062 87.3984 24.9062C87.8359 24.9062 88.1094 24.7109 88.2188 24.3203C88.3359 23.9297 88.3945 23.4258 88.3945 22.8086V10.4219H92.5781V28H88.3828V26.125C88.1172 26.7969 87.7969 27.3086 87.4219 27.6602C87.0547 28.0117 86.4727 28.1875 85.6758 28.1875Z" fill="#F7F4F3"/>
<path d="M99.1875 28.1875C97.9375 28.1875 96.9414 27.9531 96.1992 27.4844C95.457 27.0156 94.9258 26.3398 94.6055 25.457C94.2852 24.5742 94.125 23.5117 94.125 22.2695V15.2031C94.125 13.5703 94.5938 12.3359 95.5312 11.5C96.4688 10.6562 97.7578 10.2344 99.3984 10.2344C102.773 10.2344 104.461 11.8906 104.461 15.2031V16.4805C104.461 18.0273 104.445 19.0664 104.414 19.5977H98.3203V22.9961C98.3203 23.3086 98.3398 23.6172 98.3789 23.9219C98.418 24.2188 98.5039 24.4648 98.6367 24.6602C98.7773 24.8555 99 24.9531 99.3047 24.9531C99.7422 24.9531 100.016 24.7656 100.125 24.3906C100.234 24.0078 100.289 23.5117 100.289 22.9023V21.2148H104.461V22.2109C104.461 23.5234 104.297 24.625 103.969 25.5156C103.648 26.3984 103.102 27.0664 102.328 27.5195C101.562 27.9648 100.516 28.1875 99.1875 28.1875ZM98.2969 17.5117H100.289V15.1445C100.289 14.5117 100.211 14.0586 100.055 13.7852C99.8984 13.5039 99.6641 13.3633 99.3516 13.3633C99.0156 13.3633 98.7539 13.4961 98.5664 13.7617C98.3867 14.0273 98.2969 14.4883 98.2969 15.1445V17.5117Z" fill="#F7F4F3"/>
<path d="M110.801 28.1875C107.332 28.1875 105.598 26.4297 105.598 22.9141V21.5195H109.816V23.582C109.816 23.9805 109.895 24.293 110.051 24.5195C110.207 24.7461 110.457 24.8594 110.801 24.8594C111.41 24.8594 111.715 24.4023 111.715 23.4883C111.715 22.7227 111.555 22.1523 111.234 21.7773C110.914 21.3945 110.523 21.0273 110.062 20.6758L107.824 18.9531C107.121 18.4062 106.586 17.8281 106.219 17.2188C105.852 16.6094 105.668 15.7617 105.668 14.6758C105.668 13.668 105.906 12.8359 106.383 12.1797C106.867 11.5234 107.504 11.0352 108.293 10.7148C109.09 10.3945 109.949 10.2344 110.871 10.2344C114.277 10.2344 115.98 11.9336 115.98 15.332V15.6602H111.645V14.9922C111.645 14.6406 111.582 14.3008 111.457 13.9727C111.34 13.6445 111.105 13.4805 110.754 13.4805C110.16 13.4805 109.863 13.793 109.863 14.418C109.863 15.0508 110.113 15.5469 110.613 15.9062L113.215 17.8047C114.027 18.3906 114.707 19.0859 115.254 19.8906C115.809 20.6953 116.086 21.7656 116.086 23.1016C116.086 24.7578 115.613 26.0195 114.668 26.8867C113.73 27.7539 112.441 28.1875 110.801 28.1875Z" fill="#F7F4F3"/>
<path d="M120.984 28.1875C119.852 28.1875 119.086 27.9492 118.688 27.4727C118.297 26.9883 118.102 26.25 118.102 25.2578V14.3008H116.918V11.1016H118.102V7.375H122.18V11.1016H123.363V14.3008H122.18V24.2734C122.18 24.5625 122.227 24.7656 122.32 24.8828C122.414 25 122.594 25.0586 122.859 25.0586C123.047 25.0586 123.215 25.043 123.363 25.0117V27.8711C123.27 27.9023 122.977 27.9609 122.484 28.0469C121.992 28.1406 121.492 28.1875 120.984 28.1875Z" fill="#F7F4F3"/>
<defs>
<clipPath id="clip0_159_2">
<rect width="24" height="30" fill="white"/>
</clipPath>
</defs>
</svg>
