<svg width="24" height="24" viewBox="0 0 24 24" fill="none" xmlns="http://www.w3.org/2000/svg">
<path d="M9.69563 1.65891C5.25587 1.65891 1.64673 5.27086 1.64673 9.71062C1.64673 14.1504 5.25573 17.7586 9.69563 17.7586C11.7396 17.7586 13.6016 16.9877 15.022 15.729L15.6215 16.3298L14.8893 17.061C14.6961 17.2532 14.6961 17.5652 14.8893 17.7577L19.0079 21.8762C19.6068 22.4752 20.7582 22.5878 21.6929 21.653C22.6276 20.7183 22.4607 19.6213 21.8617 19.0222L17.7434 14.9038C17.45 14.6731 17.3151 14.771 17.0496 14.9038L16.3153 15.6369L15.7147 15.0364C16.9729 13.616 17.7434 11.7544 17.7434 9.71092C17.7434 5.27115 14.1352 1.6592 9.69538 1.6592L9.69563 1.65891ZM9.69563 2.64291C13.6037 2.64291 16.7597 5.80256 16.7597 9.71072C16.7597 13.6187 13.6039 16.7748 9.69563 16.7748C5.78738 16.7748 2.63157 13.619 2.63157 9.71072C2.63157 5.8027 5.78738 2.64291 9.69563 2.64291ZM9.69563 4.56769C6.86115 4.56769 4.55345 6.8752 4.55345 9.70987C4.55345 12.5445 6.86096 14.8525 9.69563 14.8525C12.5303 14.8525 14.8383 12.5441 14.8383 9.70987C14.8383 6.87562 12.5299 4.56769 9.69563 4.56769ZM9.69563 5.55169C11.9984 5.55169 13.8545 7.40691 13.8545 9.70964C13.8545 12.0124 11.9982 13.8685 9.69563 13.8685C7.3929 13.8685 5.53768 12.0122 5.53768 9.70964C5.53768 7.40691 7.3929 5.55169 9.69563 5.55169ZM17.3958 15.9453L18.1876 16.737L16.7231 18.2015L15.9313 17.4097L17.3958 15.9453ZM18.8843 17.4346L21.1685 19.7189C21.3941 19.9444 21.5184 20.3662 20.957 20.9275C20.3956 21.4889 19.9303 21.408 19.7049 21.1824L17.4208 18.8982L18.8843 17.4346Z" fill="#F7F4F3"/>
<path d="M10.0489 2C5.60914 2 2 5.61195 2 10.0517C2 14.4915 5.609 18.0997 10.0489 18.0997C12.0929 18.0997 13.9549 17.3288 15.3753 16.0701L15.9748 16.6709L15.2426 17.402C15.0494 17.5943 15.0494 17.9063 15.2426 18.0987L19.3611 22.2173C19.9601 22.8162 21.1115 22.9289 22.0462 21.9941C22.9809 21.0594 22.814 19.9624 22.215 19.3633L18.0966 15.2449C17.8033 15.0142 17.6683 15.1121 17.4028 15.2449L16.6686 15.978L16.068 15.3775C17.3261 13.9571 18.0966 12.0955 18.0966 10.052C18.0966 5.61225 14.4885 2.0003 10.0487 2.0003L10.0489 2ZM10.0489 2.984C13.9569 2.984 17.113 6.14366 17.113 10.0518C17.113 13.9598 13.9572 17.1159 10.0489 17.1159C6.14066 17.1159 2.98484 13.9601 2.98484 10.0518C2.98484 6.1438 6.14066 2.984 10.0489 2.984ZM10.0489 4.90878C7.21442 4.90878 4.90672 7.2163 4.90672 10.051C4.90672 12.8856 7.21423 15.1936 10.0489 15.1936C12.8836 15.1936 15.1916 12.8852 15.1916 10.051C15.1916 7.21672 12.8832 4.90878 10.0489 4.90878ZM10.0489 5.89278C12.3516 5.89278 14.2078 7.748 14.2078 10.0507C14.2078 12.3535 12.3515 14.2096 10.0489 14.2096C7.74617 14.2096 5.89095 12.3533 5.89095 10.0507C5.89095 7.748 7.74617 5.89278 10.0489 5.89278ZM17.7491 16.2864L18.5408 17.0781L17.0764 18.5426L16.2846 17.7508L17.7491 16.2864ZM19.2375 17.7757L21.5217 20.06C21.7473 20.2855 21.8717 20.7072 21.3103 21.2686C20.7488 21.83 20.2836 21.7491 20.0582 21.5235L17.7741 19.2393L19.2375 17.7757Z" fill="#06070E" stroke="#06070E" stroke-width="0.390625"/>
</svg>
